<svg id="Capa_1" data-name="Capa 1" xmlns="http://www.w3.org/2000/svg" xmlns:xlink="http://www.w3.org/1999/xlink" viewBox="0 0 640 679.54"><defs><style>.cls-1,.cls-9{fill:none;}.cls-2{clip-path:url(#clip-path);}.cls-3{fill:url(#Degradado_sin_nombre_11);}.cls-4{clip-path:url(#clip-path-2);}.cls-5{fill:url(#Degradado_sin_nombre_11-2);}.cls-6{clip-path:url(#clip-path-3);}.cls-7{fill:url(#Degradado_sin_nombre_11-3);}.cls-8{fill:#e4a333;}.cls-9{stroke:#e4a333;stroke-miterlimit:10;stroke-width:0.4px;}</style><clipPath id="clip-path"><polygon class="cls-1" points="384.26 308.66 321.8 472.66 321.32 472.66 256.97 308.66 252.2 308.66 318.94 478.86 321.53 486.81 324.19 478.86 389.02 308.66 384.26 308.66"/></clipPath><linearGradient id="Degradado_sin_nombre_11" x1="-632.28" y1="1887.26" x2="-631.28" y2="1887.26" gradientTransform="matrix(0, 178.15, 178.15, 0, -335898.31, 112951.42)" gradientUnits="userSpaceOnUse"><stop offset="0" stop-color="#fff"/><stop offset="0.52" stop-color="#ecbd34"/><stop offset="1" stop-color="#8b2d27"/></linearGradient><clipPath id="clip-path-2"><path class="cls-1" d="M422.84,113.45c25.24-33.33,69.5-69.77,107-71q1.75-.06,3.42-.06c26.85,0,38.76,10.88,43.83,18.63-10.61-5.28-26.39-5-45.31.61C517.74,65.79,488.9,80,453.74,127.76,427.35,163.63,392.51,248.47,383.09,272c-22.65-76.16,19.3-131.55,39.75-158.54M529.71,37.74C490.43,39,445.85,75.28,419.1,110.62,397.61,139,352.91,198,380.63,279.72l.18.55-26.36,69.21h4.76l37-97.05c14.56-34.81,40.64-93.75,61.34-121.89,34.35-46.7,62.13-60.41,75.63-64.43,9.4-2.81,17.94-4.23,25.37-4.23,10,0,17.68,2.64,22.72,7.83l5.78,6-1.81-8.1c-.07-.3-7.05-29.88-51.92-29.89-1.17,0-2.36,0-3.58.07"/></clipPath><linearGradient id="Degradado_sin_nombre_11-2" x1="-642.84" y1="1887.27" x2="-641.84" y2="1887.27" gradientTransform="matrix(0, -311.8, -311.8, 0, 588929.33, -200090.18)" xlink:href="#Degradado_sin_nombre_11"/><clipPath id="clip-path-3"><path class="cls-1" d="M109.35,42.37q1.68,0,3.42.06c37.53,1.25,81.79,37.69,107,71,20.44,27,62.39,82.38,39.74,158.54-9.42-23.52-44.26-108.36-70.65-144.23-35.16-47.8-64-62-78.07-66.15C91.91,56,76.13,55.72,65.53,61c5.07-7.75,17-18.63,43.82-18.63M57.43,67.56l-1.81,8.1,5.79-6c5-5.19,12.67-7.83,22.71-7.83,7.43,0,16,1.42,25.37,4.23,13.5,4,41.28,17.73,75.63,64.43,20.7,28.14,46.78,87.08,61.34,121.89l37,97.05h4.76l-26.36-69.21.18-.55C289.73,198,245,139,223.55,110.62,196.79,75.28,152.21,39,112.93,37.74c-1.22-.05-2.41-.07-3.58-.07-44.87,0-51.85,29.59-51.92,29.89"/></clipPath><linearGradient id="Degradado_sin_nombre_11-3" x1="-642.84" y1="1887.26" x2="-641.84" y2="1887.26" gradientTransform="matrix(0, -311.8, -311.8, 0, 588630.5, -200090.18)" xlink:href="#Degradado_sin_nombre_11"/></defs><title>main-logo</title><g class="cls-2"><rect class="cls-3" x="252.2" y="308.66" width="136.82" height="178.15"/></g><g class="cls-4"><rect class="cls-5" x="352.91" y="37.67" width="234.11" height="311.81"/></g><g class="cls-6"><rect class="cls-7" x="55.62" y="37.67" width="234.11" height="311.81"/></g><polygon class="cls-8" points="106.2 540.05 106.95 540.05 96.75 566.85 95.92 566.85 85.41 540.05 86.16 540.05 96.3 565.88 96.37 565.88 106.2 540.05"/><polygon class="cls-8" points="130.1 566.1 147.28 566.1 147.28 566.85 129.34 566.85 129.34 540.05 147.13 540.05 147.13 540.81 130.1 540.81 130.1 552.52 146.12 552.52 146.12 553.27 130.1 553.27 130.1 566.1"/><polygon class="cls-8" points="170.53 540.05 171.66 540.05 189.97 565.91 190.05 565.91 190.05 540.05 190.8 540.05 190.8 566.85 189.68 566.85 171.36 541 171.29 541 171.29 566.85 170.53 566.85 170.53 540.05"/><path class="cls-8" d="M234.81,540.05h.75v16.82c0,7.09-3.53,10.62-9.83,10.62s-9.84-3.53-9.84-10.62V540.05h.76v16.82c0,6.38,3,9.87,9.08,9.87s9.08-3.49,9.08-9.87Z"/><path class="cls-8" d="M278.56,547.56c-.19-5.48-3.87-7.39-8.71-7.39-3.79,0-8.41,1.35-8.41,6.16s4.66,5.4,9.24,6.48c5,1.28,9.15,1.88,9.15,7.47,0,5.07-4.88,7.21-9.46,7.21-6.08,0-10.58-2.78-10.47-9.53h.75c0,6.42,4,8.78,9.72,8.78,4.21,0,8.71-1.88,8.71-6.49,0-5.41-5.25-5.86-9.38-6.87-4.35-1-9-1.8-9-7s4.84-6.91,9.16-6.91c5.25,0,9.19,2.14,9.46,8.14Z"/><path class="cls-8" d="M367.29,540.05h11.53c4.2,0,7.54,2.22,7.54,6.68a6.05,6.05,0,0,1-5.67,6.12v.08a6.41,6.41,0,0,1,6.5,6.64c0,4.81-3.68,7.28-8.82,7.28H367.29Zm.75,12.47h10.78c3.56,0,6.79-1.95,6.79-5.79,0-4.05-3-5.92-6.79-5.92H368Zm0,13.58H378.7c4.36,0,7.73-2.1,7.73-6.49,0-4.69-3.82-6.34-7.61-6.34H368Z"/><polygon class="cls-8" points="427.93 566.1 427.93 566.85 411.53 566.85 411.53 540.05 412.28 540.05 412.28 566.1 427.93 566.1"/><path class="cls-8" d="M462.14,539.42c8,0,12.34,6.42,12.34,14s-4.31,14-12.34,14-12.35-6.42-12.35-14,4.32-14,12.35-14m0,27.32c7.2,0,11.52-5.55,11.59-13.29s-4.39-13.28-11.59-13.28-11.52,5.55-11.6,13.28c.08,7.74,4.39,13.29,11.6,13.29"/><path class="cls-8" d="M510.24,539.42c8,0,12.35,6.42,12.35,14s-4.32,14-12.35,14-12.35-6.42-12.35-14,4.32-14,12.35-14m0,27.32c7.2,0,11.52-5.55,11.59-13.29s-4.39-13.28-11.59-13.28-11.53,5.55-11.6,13.28,4.39,13.29,11.6,13.29"/><path class="cls-8" d="M546.81,540.05h9.39c5.33,0,11.41,2.86,11.41,13.4,0,9.61-6.12,13.4-12.57,13.4h-8.23Zm.76,26.05h7.65c6.34,0,11.64-4,11.64-12.65,0-10-5.48-12.64-10.85-12.64h-8.44Z"/><path class="cls-8" d="M323.36,552.8a2,2,0,1,0-2,2,2,2,0,0,0,2-2"/><polygon class="cls-8" points="235.12 624.78 235.12 624.47 243.48 624.47 243.48 624.78 239.46 624.78 239.46 635.64 239.15 635.64 239.15 624.78 235.12 624.78"/><path class="cls-8" d="M250.91,632l-1.49,3.67h-.36l4.54-11.17H254l4.42,11.17h-.35L256.61,632Zm5.57-.32-2.66-6.87h0L251,631.65Z"/><polygon class="cls-8" points="264.02 624.78 264.02 624.47 272.38 624.47 272.38 624.78 268.36 624.78 268.36 635.64 268.05 635.64 268.05 624.78 264.02 624.78"/><polygon class="cls-8" points="279.04 624.78 279.04 624.47 287.4 624.47 287.4 624.78 283.38 624.78 283.38 635.64 283.06 635.64 283.06 624.78 279.04 624.78"/><path class="cls-8" d="M300,624.2c3.35,0,5.15,2.68,5.15,5.86s-1.8,5.85-5.15,5.85-5.15-2.67-5.15-5.85,1.8-5.86,5.15-5.86m0,11.4c3,0,4.81-2.32,4.84-5.54s-1.83-5.55-4.84-5.55-4.81,2.32-4.84,5.55S297,635.6,300,635.6"/><path class="cls-8" d="M318.46,624.2c3.35,0,5.15,2.68,5.15,5.86s-1.8,5.85-5.15,5.85-5.16-2.67-5.16-5.85,1.81-5.86,5.16-5.86m0,11.4c3,0,4.8-2.32,4.84-5.54s-1.84-5.55-4.84-5.55-4.81,2.32-4.84,5.55,1.83,5.54,4.84,5.54"/><path class="cls-8" d="M351.14,627.6c-.07-2.29-1.61-3.09-3.63-3.09-1.58,0-3.51.57-3.51,2.57s1.94,2.25,3.85,2.71c2.09.53,3.83.78,3.83,3.12,0,2.11-2,3-3.95,3-2.54,0-4.42-1.16-4.37-4h.31c0,2.67,1.68,3.66,4.06,3.66,1.75,0,3.63-.78,3.63-2.71,0-2.26-2.19-2.44-3.91-2.87s-3.76-.75-3.76-2.94,2-2.88,3.82-2.88c2.19,0,3.84.89,3.95,3.4Z"/><polygon class="cls-8" points="360.74 629.98 360.74 635.64 360.43 635.64 360.43 624.47 360.74 624.47 360.74 629.66 368.57 629.66 368.57 624.47 368.89 624.47 368.89 635.64 368.57 635.64 368.57 629.98 360.74 629.98"/><path class="cls-8" d="M382.57,624.2c3.35,0,5.15,2.68,5.15,5.86s-1.8,5.85-5.15,5.85-5.15-2.67-5.15-5.85,1.8-5.86,5.15-5.86m0,11.4c3,0,4.81-2.32,4.84-5.54s-1.83-5.55-4.84-5.55-4.81,2.32-4.84,5.55,1.83,5.54,4.84,5.54"/><path class="cls-8" d="M396.55,635.64h-.31V624.47h4.53c2.13,0,3.4,1,3.4,3s-1.49,3-3.56,3h-4.06Zm0-5.4h4.22c1.75,0,3.08-1,3.08-2.72s-1-2.74-3.08-2.74h-4.22Z"/><line class="cls-9" x1="50.81" y1="594.31" x2="590.06" y2="594.31"/></svg>