<?xml version="1.0" encoding="iso-8859-1"?>
<!-- Generator: Adobe Illustrator 19.0.0, SVG Export Plug-In . SVG Version: 6.00 Build 0)  -->
<svg version="1.1" id="Layer_1" xmlns="http://www.w3.org/2000/svg" xmlns:xlink="http://www.w3.org/1999/xlink" x="0px" y="0px"
	 viewBox="0 0 512 512" style="enable-background:new 0 0 512 512;" xml:space="preserve">
<circle style="fill:#21D8DE;" cx="256" cy="256" r="256"/>
<path style="fill:#242D3C;" d="M394.154,201.929c-1.82-1.807-4.205-2.722-6.606-2.722H124.459c-2.382,0-4.773,0.915-6.606,2.722
	c-1.807,1.823-2.722,4.205-2.722,6.597v162.591h281.749V208.526C396.876,206.134,395.974,203.753,394.154,201.929z"/>
<circle style="fill:#3E4959;" cx="256" cy="206.386" r="3.947"/>
<g>
	<circle style="fill:#FFFFFF;" cx="256" cy="206.386" r="1.698"/>
	<rect x="129.784" y="213.554" style="fill:#FFFFFF;" width="252.433" height="157.554"/>
	<rect x="85.253" y="371.117" style="fill:#FFFFFF;" width="341.487" height="4.231"/>
</g>
<path style="fill:#CCCBCA;" d="M85.253,375.349c12.328,5.447,25.967,8.469,40.309,8.469h260.885c14.343,0,27.968-3.022,40.303-8.469
	H85.253z"/>
<rect x="226.37" y="371.117" style="fill:#242D3C;" width="59.263" height="2.117"/>
<polygon style="fill:#FFFFFF;" points="94.479,299.011 74.323,290.568 94.479,282.119 "/>
<rect x="94.479" y="282.129" style="fill:#FFB733;" width="323.055" height="16.893"/>
<rect x="94.479" y="282.129" style="fill:#FFD55C;" width="323.055" height="8.45"/>
<polygon style="fill:#242D3C;" points="84.401,294.793 74.323,290.568 84.401,286.343 "/>
<rect x="417.528" y="282.129" style="fill:#FFFFFF;" width="5.969" height="16.893"/>
<rect x="423.507" y="282.129" style="fill:#F15424;" width="14.181" height="16.893"/>
<polygon style="fill:#1F2633;" points="366.361,199.218 364.577,213.554 147.423,213.554 145.639,199.218 "/>
<polygon style="fill:#D9D8D7;" points="364.577,213.554 355.989,282.129 156.011,282.129 147.423,213.554 "/>
<polygon style="fill:#D9B44E;" points="355.989,282.129 354.965,290.552 157.035,290.552 156.011,282.129 "/>
<polygon style="fill:#D99B2B;" points="354.965,290.552 353.908,299.008 158.092,299.008 157.035,290.552 "/>
<polygon style="fill:#D9D8D7;" points="353.908,299.008 344.89,371.117 167.11,371.117 158.092,299.008 "/>
<rect x="167.117" y="95.153" style="fill:#FFFFFF;" width="177.766" height="275.951"/>
<rect x="167.117" y="95.153" style="fill:#F15424;" width="177.766" height="16.486"/>
<rect x="167.117" y="282.129" style="fill:#3E4959;" width="177.766" height="88.996"/>
<g>
	<rect x="180.786" y="295.804" style="fill:#FFFFFF;" width="41.033" height="32.798"/>
	<rect x="235.487" y="295.804" style="fill:#FFFFFF;" width="41.019" height="32.798"/>
	<rect x="290.188" y="295.804" style="fill:#FFFFFF;" width="41.026" height="32.798"/>
</g>
<g>
	<rect x="180.786" y="206.782" style="fill:#F15424;" width="41.033" height="32.794"/>
	<rect x="235.487" y="206.782" style="fill:#F15424;" width="41.019" height="32.794"/>
	<rect x="290.188" y="206.782" style="fill:#F15424;" width="41.026" height="32.794"/>
</g>
<rect x="180.799" y="125.318" style="fill:#3E4959;" width="150.406" height="19.677"/>
<rect x="180.786" y="158.654" style="fill:#F15424;" width="150.419" height="6.564"/>
<g>
	<rect x="180.786" y="334.551" style="fill:#FFFFFF;" width="41.033" height="3.164"/>
	<rect x="180.786" y="341.653" style="fill:#FFFFFF;" width="41.033" height="3.161"/>
	<rect x="180.786" y="348.755" style="fill:#FFFFFF;" width="41.033" height="3.161"/>
	<rect x="180.786" y="355.857" style="fill:#FFFFFF;" width="20.51" height="3.161"/>
	<rect x="235.487" y="334.551" style="fill:#FFFFFF;" width="41.019" height="3.164"/>
	<rect x="235.487" y="341.653" style="fill:#FFFFFF;" width="41.019" height="3.161"/>
	<rect x="235.487" y="348.755" style="fill:#FFFFFF;" width="41.019" height="3.161"/>
	<rect x="235.487" y="355.857" style="fill:#FFFFFF;" width="20.51" height="3.161"/>
	<rect x="290.188" y="334.551" style="fill:#FFFFFF;" width="41.026" height="3.164"/>
	<rect x="290.188" y="341.653" style="fill:#FFFFFF;" width="41.026" height="3.161"/>
	<rect x="290.188" y="348.755" style="fill:#FFFFFF;" width="41.026" height="3.161"/>
	<rect x="290.188" y="355.857" style="fill:#FFFFFF;" width="20.516" height="3.161"/>
</g>
<g>
	<rect x="180.799" y="245.562" style="fill:#242D3C;" width="150.426" height="3.161"/>
	<rect x="180.786" y="252.664" style="fill:#242D3C;" width="150.439" height="3.161"/>
	<rect x="180.799" y="259.766" style="fill:#242D3C;" width="150.426" height="3.161"/>
	<rect x="180.799" y="266.868" style="fill:#242D3C;" width="75.208" height="3.161"/>
	<rect x="180.799" y="177.33" style="fill:#242D3C;" width="150.426" height="3.161"/>
	<rect x="180.786" y="184.432" style="fill:#242D3C;" width="150.439" height="3.161"/>
	<rect x="201.295" y="191.541" style="fill:#242D3C;" width="109.403" height="3.161"/>
</g>
<g>
	<rect x="197.503" y="133.582" style="fill:#FFFFFF;" width="16.711" height="3.161"/>
	<rect x="230.929" y="133.582" style="fill:#FFFFFF;" width="16.711" height="3.161"/>
	<rect x="264.357" y="133.582" style="fill:#FFFFFF;" width="16.711" height="3.161"/>
	<rect x="297.786" y="133.582" style="fill:#FFFFFF;" width="16.724" height="3.161"/>
</g>
<g>
</g>
<g>
</g>
<g>
</g>
<g>
</g>
<g>
</g>
<g>
</g>
<g>
</g>
<g>
</g>
<g>
</g>
<g>
</g>
<g>
</g>
<g>
</g>
<g>
</g>
<g>
</g>
<g>
</g>
</svg>
