<?xml version="1.0" encoding="utf-8"?>
<!-- Generator: Adobe Illustrator 19.0.0, SVG Export Plug-In . SVG Version: 6.00 Build 0)  -->
<svg version="1.1" id="icons__x28_128_x__x_128_x29_"
	 xmlns="http://www.w3.org/2000/svg" xmlns:xlink="http://www.w3.org/1999/xlink" x="0px" y="0px" width="136px" height="136px"
	 viewBox="0 0 136 136" style="enable-background:new 0 0 136 136;" xml:space="preserve">
<g>
	<path style="fill:#453F3C;" d="M12,120c-4.4,0-8-3.6-8-8V26c0-5.5,4.5-10,10-10h108c5.5,0,10,4.5,10,10v86c0,4.4-3.6,8-8,8H12z"/>
	<path style="fill:#F7F7F7;" d="M124,116H12c-2.2,0-4-1.8-4-4V26c0-3.3,2.7-6,6-6h108c3.3,0,6,2.7,6,6v86
		C128,114.2,126.2,116,124,116z"/>
	<g>
		<path style="fill:#5E7D65;" d="M8,36V26c0-3.3,2.7-6,6-6h108c3.3,0,6,2.7,6,6v10H8z"/>
		<rect x="8" y="36" style="fill:#453F3C;" width="120" height="4"/>
		<rect x="8" y="40" style="opacity:0.14;" width="120" height="4"/>
		<g>
			<rect x="85" y="20" style="mix-blend-mode:overlay;opacity:0.14;fill:#FFFFFF;" width="2" height="16"/>
			<rect x="89" y="20" style="mix-blend-mode:overlay;opacity:0.14;fill:#FFFFFF;" width="1" height="16"/>
		</g>
		<g>
			<circle style="fill:#453F3C;" cx="20" cy="28" r="4"/>
			<circle style="fill:#453F3C;" cx="32" cy="28" r="4"/>
			<circle style="fill:#453F3C;" cx="44" cy="28" r="4"/>
		</g>
		<g>
			<path style="fill:#453F3C;" d="M60,32c-2.2,0-4-1.8-4-4s1.8-4,4-4h56c2.2,0,4,1.8,4,4s-1.8,4-4,4H60z"/>
		</g>
	</g>
	<g>
		<rect x="110" y="62" style="fill:#453F3C;" width="2" height="2"/>
		<rect x="110" y="68" style="fill:#453F3C;" width="2" height="2"/>
		<rect x="110" y="74" style="fill:#453F3C;" width="2" height="2"/>
		<rect x="110" y="80" style="fill:#453F3C;" width="2" height="2"/>
		<rect x="110" y="86" style="fill:#453F3C;" width="2" height="2"/>
		<rect x="110" y="92" style="fill:#453F3C;" width="2" height="2"/>
		<rect x="24" y="62" style="fill:#453F3C;" width="2" height="2"/>
		<rect x="24" y="68" style="fill:#453F3C;" width="2" height="2"/>
		<rect x="24" y="74" style="fill:#453F3C;" width="2" height="2"/>
		<rect x="24" y="80" style="fill:#453F3C;" width="2" height="2"/>
		<rect x="24" y="86" style="fill:#453F3C;" width="2" height="2"/>
		<rect x="24" y="92" style="fill:#453F3C;" width="2" height="2"/>
		<rect x="52" y="62" style="fill:#453F3C;" width="2" height="2"/>
		<rect x="52" y="68" style="fill:#453F3C;" width="2" height="2"/>
		<rect x="52" y="74" style="fill:#453F3C;" width="2" height="2"/>
		<rect x="52" y="80" style="fill:#453F3C;" width="2" height="2"/>
		<rect x="52" y="86" style="fill:#453F3C;" width="2" height="2"/>
		<rect x="52" y="92" style="fill:#453F3C;" width="2" height="2"/>
		<rect x="100" y="52" style="fill:#453F3C;" width="2" height="2"/>
		<rect x="94" y="52" style="fill:#453F3C;" width="2" height="2"/>
		<rect x="88" y="52" style="fill:#453F3C;" width="2" height="2"/>
		<rect x="82" y="52" style="fill:#453F3C;" width="2" height="2"/>
		<rect x="76" y="52" style="fill:#453F3C;" width="2" height="2"/>
		<rect x="70" y="52" style="fill:#453F3C;" width="2" height="2"/>
		<rect x="64" y="52" style="fill:#453F3C;" width="2" height="2"/>
		<rect x="58" y="52" style="fill:#453F3C;" width="2" height="2"/>
		<rect x="52" y="52" style="fill:#453F3C;" width="2" height="2"/>
		<rect x="46" y="52" style="fill:#453F3C;" width="2" height="2"/>
		<rect x="40" y="52" style="fill:#453F3C;" width="2" height="2"/>
		<rect x="34" y="52" style="fill:#453F3C;" width="2" height="2"/>
		<rect x="100" y="102" style="fill:#453F3C;" width="2" height="2"/>
		<rect x="94" y="102" style="fill:#453F3C;" width="2" height="2"/>
		<rect x="88" y="102" style="fill:#453F3C;" width="2" height="2"/>
		<rect x="82" y="102" style="fill:#453F3C;" width="2" height="2"/>
		<rect x="76" y="102" style="fill:#453F3C;" width="2" height="2"/>
		<rect x="70" y="102" style="fill:#453F3C;" width="2" height="2"/>
		<rect x="64" y="102" style="fill:#453F3C;" width="2" height="2"/>
		<rect x="58" y="102" style="fill:#453F3C;" width="2" height="2"/>
		<rect x="52" y="102" style="fill:#453F3C;" width="2" height="2"/>
		<rect x="46" y="102" style="fill:#453F3C;" width="2" height="2"/>
		<rect x="40" y="102" style="fill:#453F3C;" width="2" height="2"/>
		<rect x="34" y="102" style="fill:#453F3C;" width="2" height="2"/>
		<polygon style="fill:#453F3C;" points="112,52 112,58 110,58 110,54 106,54 106,52 		"/>
		<polygon style="fill:#453F3C;" points="24,52 24,58 26,58 26,54 30,54 30,52 		"/>
		<polygon style="fill:#453F3C;" points="112,104 112,98 110,98 110,102 106,102 106,104 		"/>
		<polygon style="fill:#453F3C;" points="24,104 24,98 26,98 26,102 30,102 30,104 		"/>
		<rect x="30" y="58" style="fill:#ED7161;" width="18" height="40"/>
		<rect x="58" y="58" style="fill:#ED7161;" width="48" height="40"/>
	</g>
</g>
</svg>
