<?xml version="1.0" encoding="utf-8"?>
<!-- Generator: Adobe Illustrator 25.1.0, SVG Export Plug-In . SVG Version: 6.00 Build 0)  -->
<svg version="1.1" id="Capa_1" xmlns="http://www.w3.org/2000/svg" xmlns:xlink="http://www.w3.org/1999/xlink" x="0px" y="0px"
	 viewBox="0 0 397.5 345.7" style="enable-background:new 0 0 397.5 345.7;" xml:space="preserve">
<path d="M180.9,56.5c2-3.5,4-6.7,5.8-10c0.5-0.9,0.9-1.2,1.9-0.4c11.3,9,24.3,14.2,38.5,16.4c3.9,0.6,7.9,1,12,1.2
	c-0.1,0.6-0.4,1.1-0.9,1.4c-20.1,18.7-33.5,41.6-42.4,67.3c-4.8,13.9-8.3,28.2-10.4,42.8c-1.2,8.2-1.9,16.5-2.6,24.8
	c-0.4,4.8-0.8,9.7-1.2,14.5c0,0.3,0.1,0.8-0.4,0.7s-0.3-0.5-0.3-0.8c-0.3-5.6-0.6-11.2-1.1-16.9c-2.7-29.3-8.4-57.8-21.1-84.7
	c-7.5-16.4-17.9-31.3-30.6-44.1c-1.3-1.4-2.7-2.7-4.2-3.8c-0.3-0.2-0.9-0.3-0.6-0.9s0.6-0.5,1-0.5c3.7-0.2,7.4-0.5,11-1.1
	c13.9-1.9,27-7.4,38.1-16c0.8-0.6,1.1-0.7,1.7,0.3C176.9,49.9,178.8,53,180.9,56.5"/>
<path d="M187.9,214.4c-0.2-4.1,0-8.3,0.5-12.4c0.8-9.2,1.9-18.4,3.5-27.6c4.2-24,11-47.2,23.5-68.4c5.8-10.1,13.3-19.2,22-26.9
	c0.5-0.4,1-1.3,1.6-1s0.3,1.2,0.4,1.8c1.5,10.5,1.9,21.1,1.4,31.6c-0.6,13.5-3.1,26.9-7.4,39.7c-8.5,25-23.3,45.6-44,62
	C189,213.7,188.5,214,187.9,214.4"/>
<path d="M174.7,214.6c-3.1-2.2-5.9-4.7-8.5-7.5c-15.2-15.8-24.9-34.9-32.4-55.2c-5.2-14-8.7-28.5-10.5-43.3
	c-1.1-8.9-1.3-17.9-0.6-26.8c0.1-1.3,0.3-2.6,0.5-4.1c4,3.2,7.7,6.7,11.1,10.5c13.1,14.3,21.7,31.2,28,49.3
	c4.9,14.4,8.2,29.2,10.1,44.3c1.4,10.3,2.2,20.8,2.4,31.2C174.7,213.4,174.7,213.9,174.7,214.6"/>
<path d="M180.8,0c2,3.3,4,6.3,5.8,9.4c0.5,1.2,1.8,1.9,3.1,1.8c4.3-0.1,8.6,0,12.9,0c0.1,0.5-0.1,1.1-0.5,1.4
	c-2.4,3.7-4.8,7.4-7.3,11.1c-0.5,0.6-0.5,1.4,0,1.9c2.7,4,5.3,8.1,7.9,12.1c-0.3,0.5-0.7,0.3-1,0.3c-3.8,0-7.7,0-11.5-0.1
	c-1.8-0.2-3.4,0.8-4.2,2.4c-1.6,2.9-3.3,5.8-5.1,8.9c-1.5-2.5-2.9-4.8-4.2-7.2c-0.4-0.6-0.6-1.2-1-1.8c-0.7-1.5-2.4-2.5-4.1-2.4
	c-3.7,0-7.5,0-11.2,0h-1.6c1.3-2.2,2.5-4.3,3.6-6.4s2.2-4,3.4-6c0.4-0.6,0.4-1.4,0-2c-2.1-3.6-4.2-7.4-6.4-11
	c-0.5-0.9-0.3-1.2,0.7-1.2c3.6-0.2,7.3-0.2,10.9,0c1.9,0.2,3.8-0.8,4.6-2.6C177.4,5.9,179,3.1,180.8,0"/>
<path d="M38.7,317.9v23.6c0,1,0,2,0,2.9c0,0.6-0.2,0.8-0.8,0.8c-1.5,0-3,0-4.6,0c-0.7,0-0.9-0.2-0.8-0.9c0-0.2,0-0.5,0-0.7
	c0-12,0-23.9,0-35.9c0-1.2,0.2-1.8,1.5-1.6c1.7,0.2,3.7-0.6,5,0.3s1.7,2.8,2.5,4.2c3.3,6,6.5,12,9.7,18c0.2,0.4,0.4,0.7,0.7,1.1
	c0.5-0.3,0.6-0.7,0.8-1.1c3.8-7.1,7.7-14.2,11.5-21.3c0.3-0.8,1.1-1.3,2-1.2c1.3,0.1,2.7,0.1,4,0c1,0,1.2,0.3,1.2,1.2
	c0,6.3,0,12.6,0,18.9c0,5.8,0,11.6,0,17.5c0,1.3-0.4,1.6-1.6,1.5c-1.2-0.1-2.3-0.1-3.5,0c-1,0.1-1.2-0.2-1.2-1.2c0-7.5,0-15,0-22.5
	v-3.8l-0.2,0L58.8,329c-1.5,2.8-3.2,5.6-4.6,8.5c-0.3,0.8-1.2,1.2-2,1c-0.9-0.1-1.9,0.4-2.6-0.9c-3.2-6.1-6.6-12.1-9.9-18.2
	l-0.8-1.4L38.7,317.9"/>
<path d="M274.7,338.1c-1.4-2.3-2.8-4.5-4.2-6.8c-0.4-0.6-0.6-0.9,0.3-1.3c5.1-2.5,7.8-8.3,6.5-13.8c-1.1-5.7-6.1-9.9-11.9-10.1
	c-5.2,0-10.4,0-15.7,0c-1,0-1.2,0.3-1.2,1.2c0,5.4,0,10.8,0,16.2c0,6.8,0,13.7,0,20.5c0,0.9,0.2,1.2,1.1,1.1c1.3-0.1,2.6-0.1,3.9,0
	c1,0.1,1.2-0.3,1.2-1.2c-0.1-3.6,0-7.3-0.1-10.9c0-1.2,0.4-1.5,1.5-1.4c2,0.1,4.1,0.1,6.1,0c0.9-0.1,1.7,0.3,2.1,1.1
	c2.3,3.9,4.8,7.7,7.1,11.5c0.3,0.5,0.5,1,1.2,0.9c2.1,0,4.1,0,6.4,0L274.7,338.1 M265.5,326.2c-3.2,0-6.5,0-9.7,0
	c-0.9,0-1.2-0.3-1.1-1.2c0.1-2,0-4.1,0-6.1s0-4.1,0-6.2c0-0.7,0.2-1,0.9-1c3.2,0,6.5,0,9.7,0c2.8,0.1,5.5,2.9,5.9,6.2
	c0.3,2.3-0.4,4.6-1.8,6.3C268.4,325.5,267,326.2,265.5,326.2"/>
<path d="M143,344.4c-2.7-4.4-5.4-8.7-8.1-13.1c-0.2-0.4-0.9-0.8,0.1-1.2c4.7-1.8,7.7-7.8,6.7-13.6c-0.9-5.3-5.3-9.8-10.6-10.2
	c-5.8-0.5-11.7-0.1-17.6-0.2c-0.7,0-0.7,0.4-0.7,0.9c0,12.4,0,24.8,0,37.3c0,0.8,0.2,0.9,1,0.9c1.4-0.1,2.8-0.1,4.2,0
	c1,0,1.1-0.3,1.1-1.2c0-3.7,0-7.5,0-11.2c0-0.9,0.2-1.2,1.1-1.2c2.2,0.1,4.3,0.1,6.5,0c0.8-0.1,1.6,0.3,2,1.1
	c2.4,3.9,4.8,7.7,7.1,11.5c0.3,0.6,0.9,1,1.6,1c1.9-0.1,3.9,0,6,0C143.3,344.9,143.2,344.7,143,344.4 M130.1,326.2
	c-3.3,0-6.6,0-10,0c-0.9,0-1.1-0.3-1-1.1c0-2,0-4.1,0-6.1s0.1-4.1,0-6.1c0-1,0.3-1.2,1.2-1.1c2.8,0,5.6,0.2,8.3,0
	c4.4-0.3,7.1,3.8,7.1,7.2c0,1.9-0.6,3.8-1.8,5.3C133,325.4,131.6,326.2,130.1,326.2"/>
<path d="M327.6,311.6c-6.7-6.8-16.5-7.6-23.9-1.9c-5.2,4-7.7,9.5-7.9,16.1c0,2.1,0.3,4.2,0.9,6.1c4,13.5,20.1,18.2,30.2,8.7
	C335.2,332.7,335.4,319.7,327.6,311.6 M323,336.3c-5.3,5.8-14.7,4.5-18.7-2.6c-1.4-2.5-2.1-5.2-2-8.1c-0.1-4.1,1.5-8,4.4-10.8
	c4.5-4.4,11.8-4.3,16.2,0.2c0.5,0.5,0.9,1,1.3,1.5C328.3,322.6,327.8,330.8,323,336.3"/>
<path d="M0,325.7c0-6.1,0-12.2,0-18.3c0-1,0.2-1.3,1.3-1.3c7.9,0,15.8,0,23.7,0c1.1,0,1.4,0.3,1.3,1.3c-0.1,1-0.1,2,0,3
	c0.1,1-0.3,1.2-1.2,1.2c-5.8,0-11.6,0-17.5,0c-1.1,0-1.4,0.3-1.4,1.4c0.1,2.8,0.1,5.6,0,8.5c0,1.1,0.3,1.3,1.3,1.3
	c4.9,0,9.9,0,14.8,0c1,0,1.5,0.1,1.3,1.2s0.4,2.9-0.2,3.6s-2.4,0.2-3.7,0.3c-4,0-7.9,0.1-11.9,0c-1.4,0-1.7,0.4-1.6,1.7
	c0.1,2.9,0.1,5.7,0,8.6c0,1.2,0.2,1.6,1.6,1.6c5.9-0.1,11.7,0,17.6-0.1c1.3,0,1.6,0.4,1.5,1.5c-0.1,0.9-0.1,1.8,0,2.8
	c0.1,1-0.2,1.2-1.2,1.2c-4.8,0-9.5,0-14.3,0c-3.3,0-6.7,0-10,0c-1,0-1.3-0.2-1.3-1.4C0.1,337.8,0,331.8,0,325.7"/>
<path d="M148.4,325.7c0-6.1,0-12.2,0-18.3c0-1,0.3-1.2,1.2-1.2c7.9,0,15.8,0,23.7,0c1,0,1.4,0.2,1.4,1.3c-0.1,1-0.1,2,0,3
	c0.1,1.1-0.4,1.3-1.3,1.3c-5.8,0-11.6,0-17.3,0c-1.2,0-1.5,0.3-1.4,1.5c0.1,2.7,0.1,5.5,0,8.2c-0.1,1.3,0.4,1.5,1.6,1.5
	c4.9-0.1,9.8,0,14.7,0c0.9,0,1.3,0.2,1.2,1.2c-0.1,1-0.1,1.9,0,2.9c0.1,0.9-0.3,1.1-1.1,1.1c-5,0-10,0-15,0c-1,0-1.4,0.2-1.4,1.4
	c0.1,3,0.1,6.1,0,9.1c0,1.1,0.2,1.4,1.4,1.4c5.9-0.1,11.8,0,17.7,0c1.2,0,1.7,0.2,1.6,1.5s0.4,3-0.2,3.8s-2.5,0.3-3.8,0.3
	c-7.2,0-14.3,0-21.5,0c-1,0-1.3-0.2-1.3-1.3C148.4,337.9,148.3,331.8,148.4,325.7"/>
<path d="M179.8,335.1c4.2,3.4,9.6,5.2,15,4.9c1.1-0.1,2.1-0.3,3.1-0.7c1.7-0.6,2.8-2.1,2.9-3.9c0.1-1.7-0.7-3.2-2.1-4.1
	c-2-1.1-4.2-2-6.4-2.5c-2.2-0.6-4.4-1.2-6.6-2c-3.7-1.3-6.7-3.5-7-7.8c-0.4-4.8,1.2-8.7,5.5-11.1c5-2.8,10.4-2.6,15.7-0.9
	c1.9,0.7,3.7,1.6,5.4,2.7c0.6,0.4,0.7,0.7,0.3,1.3c-0.7,1.1-1.3,2.2-1.9,3.4c-0.4,0.9-0.7,0.7-1.4,0.2c-3.9-3-8.9-4-13.6-2.7
	c-2,0.4-3.6,2.1-3.7,4.1c-0.4,1.9,0.6,3.9,2.4,4.7c2.3,1,4.7,1.8,7.1,2.2c2.2,0.5,4.4,1.2,6.6,2.1c4.5,2,6.5,5.1,6.3,9.7
	c0.1,4.4-2.8,8.2-6.9,9.5c-6.5,2.2-12.8,1.5-19-1.3c-1.3-0.6-2.6-1.4-3.8-2.2c-0.5-0.4-0.8-0.6-0.4-1.3
	C178.2,338.2,178.9,336.6,179.8,335.1"/>
<path d="M338.6,335.1c4.2,3.4,9.6,5.2,15,4.9c1-0.1,2-0.3,3-0.7c2.3-0.7,3.6-3.2,2.8-5.5c-0.3-1-1.1-1.9-2-2.5
	c-2-1.1-4.1-1.9-6.3-2.4c-2.3-0.6-4.6-1.2-6.9-2c-3.6-1.4-6.5-3.5-6.8-7.7c-0.4-4.7,1.1-8.5,5.2-11c5.1-3,10.5-2.8,15.9-1.1
	c2,0.7,3.8,1.6,5.6,2.8c0.5,0.3,0.6,0.6,0.3,1.2c-0.7,1.1-1.3,2.3-1.9,3.5c-0.4,0.7-0.6,0.7-1.3,0.2c-3.9-3-8.9-4-13.6-2.8
	c-2.1,0.4-3.6,2.2-3.7,4.3c-0.3,1.8,0.7,3.7,2.4,4.4c2.3,1,4.6,1.8,7.1,2.3c2.3,0.5,4.5,1.2,6.7,2.1c4.4,2,6.4,5,6.3,9.6
	c0.1,4.4-2.7,8.3-6.9,9.6c-6.5,2.2-12.9,1.5-19.1-1.3c-1.4-0.6-2.7-1.4-3.9-2.3c-0.3-0.2-0.7-0.3-0.4-0.9
	C336.9,338.3,337.8,336.6,338.6,335.1"/>
<path d="M106.4,313.2c-2-4.5-6.6-7.3-11.6-7c-4.8,0.1-9.5,0.1-14.3,0c-1,0-1.2,0.2-1.2,1.2c0,6.1,0,12.2,0,18.3s0,12.3,0,18.4
	c0,0.9,0.2,1.2,1.2,1.1c1.3-0.1,2.6-0.1,3.9,0c1,0.1,1.2-0.3,1.2-1.2c-0.1-3.6,0-7.3-0.1-10.9c0-1.2,0.4-1.4,1.5-1.4c3,0.1,6,0,9,0
	c3.6,0.1,7.1-1.6,9.1-4.6C108.2,322.7,108.8,318,106.4,313.2 M99.8,324.2c-0.9,1.2-2.3,2-3.8,2c-3.1,0-6.3,0-9.4,0
	c-0.9,0-1.1-0.4-1-1.1c0-2,0-4.1,0-6.1s0-3.9,0-5.8c0-1,0.2-1.5,1.3-1.4c2.5,0.1,5.1,0.1,7.6,0c4-0.3,7.2,2.9,7,7.6
	C101.5,321.1,100.9,322.8,99.8,324.2"/>
<path d="M244,344.1c-4.5-11.4-9-22.8-13.5-34.2c-0.5-1.2-0.7-2.9-1.6-3.5s-2.6-0.1-3.9-0.2c-1.1-0.1-1.5,0.4-1.9,1.3
	c-3.5,8.8-7,17.6-10.5,26.5c-1.5,3.7-3,7.4-4.5,11.3c2.1,0,4,0,6,0c0.7,0,0.8-0.4,1-0.9c1.1-2.8,2.2-5.7,3.2-8.5
	c0.1-0.7,0.8-1.2,1.6-1.1c4.3,0.1,8.6,0,12.9,0c0.7-0.1,1.3,0.4,1.4,1c1.1,2.9,2.2,5.8,3.3,8.6c0.1,0.7,0.7,1.1,1.4,1
	c1.8-0.1,3.6,0,5.4,0C244.4,344.8,244.2,344.5,244,344.1 M220,330c2.1-5.4,4.2-10.8,6.4-16.5l6.2,16.5H220z"/>
<path d="M199.7,274.2c-1.2-1.4-2.8-2.5-4.5-3.1c3.5-2.4,5-4.7,5.2-8.2c0.4-5.3-3.2-11.1-10-10.9c-5.5,0.2-11,0.1-16.5,0
	c-0.9,0-1.3,0.2-1.2,1.2c0,12.2,0,24.5,0,36.7c0,0.9,0.3,1.1,1.2,1.1c6,0,12,0.1,18,0c4.1,0.1,7.8-2.3,9.3-6.1
	C202.8,281.4,202.2,277.2,199.7,274.2 M176.5,256.6c0-0.7,0.1-1.1,1-1.1c4.1,0,8.2,0,12.3,0c5.3,0,7.6,5.2,6.3,9.4
	c-0.8,3-3.5,5-6.6,4.9h-5.7c-2.1,0-4.2,0-6.2,0c-0.8,0-1.1-0.1-1.1-1C176.6,264.7,176.5,260.7,176.5,256.6 M191.3,287.8
	c-4.6,0.1-9.1,0-13.7,0c-0.7,0-1-0.2-1-0.9c0-4.3,0-8.6,0-12.9c0-0.8,0.3-0.9,1-0.9c2.4,0,4.8,0,7.2,0h6.4c3.9,0,7,3.1,7,7
	c0,0,0,0,0,0.1C198.3,284.1,195.3,287.5,191.3,287.8"/>
<path d="M253.5,268c-1.1-8.9-7.3-14.9-16.1-15.7c-4.8-0.4-9.5-0.1-14.3-0.2c-1.1,0-1.4,0.3-1.4,1.4c0,6,0,12.1,0,18.2s0,12.2,0,18.3
	c0,0.9,0.2,1.3,1.2,1.2c4.4-0.1,8.9,0,13.3,0c7,0,13.4-4.3,15.9-10.9C253.7,276.4,254.1,272.1,253.5,268 M248.8,278.1
	c-1.7,5.7-7,9.6-13,9.6c-3,0-6,0-9,0c-0.9,0-1.2-0.3-1.2-1.2c0-5,0-10,0-15s0-9.8,0-14.7c0-1.1,0.3-1.3,1.3-1.3
	c3.4,0.1,6.9-0.2,10.2,0.2c6.9,0.7,11.6,5.8,12.4,12.8C250.1,271.7,249.8,275,248.8,278.1"/>
<path d="M260.3,271.5c0-6.1,0-12.1,0-18.2c0-1,0.3-1.3,1.3-1.3c7.7,0.1,15.4,0.1,23.1,0c1,0,1.5,0.2,1.3,1.3c-0.1,0.3-0.1,0.7,0,1
	c0.2,1.1-0.3,1.3-1.3,1.3c-6.4,0-12.8,0-19.1,0c-1.3,0-1.5,0.4-1.5,1.5c0.1,3.7,0.1,7.5,0,11.2c0,1,0.2,1.2,1.2,1.2
	c5.5,0,11,0,16.5-0.1c1.7,0,1.3,0.9,1.4,1.8s0,1.6-1.4,1.6c-5.5-0.1-10.9,0-16.4-0.1c-1,0-1.3,0.3-1.3,1.3c0.1,4.1,0.1,8.1,0,12.2
	c0,1.2,0.4,1.3,1.4,1.3c6.5,0,13,0,19.5,0c1.1,0,1.6,0.2,1.4,1.4c0,0.2,0,0.5,0,0.7c0.2,1.2-0.4,1.4-1.5,1.4c-4.5-0.1-9,0-13.5,0
	c-3.3,0-6.6,0-9.8,0c-1.2,0-1.6-0.2-1.5-1.5c0.1-6,0-12.1,0-18.1"/>
<path d="M164.3,264.4c-0.1,3.5,0.3,7.8-0.3,12c-0.8,5.4-2.7,10.1-7.7,13c-7.6,4.6-17.5,2.2-22.1-5.4c-1-1.7-1.7-3.5-2.1-5.4
	c-0.5-2.3-0.7-4.6-0.7-6.9c0-6.1,0-12.2,0-18.3c0-1,0.2-1.5,1.4-1.4c2.5,0.1,2.5,0,2.5,2.6c0.1,6.7-0.2,13.4,0.1,20.1
	c0.1,2.4,0.7,4.8,1.8,6.9c2.4,4.7,6.6,6.7,12.6,6.2c4.6-0.4,8.4-3.9,9.7-8.8c0.6-2.1,0.9-4.4,0.9-6.6c0-6.3,0-12.6,0-18.9
	c0-1.3,0.4-1.5,1.5-1.5c2.4,0.1,2.4,0,2.4,2.4L164.3,264.4z"/>
<path d="M83.7,251.9c4.3,0,9.1,2.2,12.3,7.3c0.5,0.9,0.5,1.4-0.4,1.9c-1.9,1.1-1.9,1.1-3.1-0.6c-4.8-6.6-14.8-7-20.7-0.6
	c-6.5,7-5.3,19.6,2.3,25.3c5.9,4.5,14.3,3.3,18.7-2.5c0.3-0.4,0.6-0.8,0.8-1.2c0.4-0.7,0.7-0.7,1.4-0.4c2.7,1.3,2.7,1.4,0.9,3.8
	c-4.8,6.3-14.8,8.4-21.8,4.5c-12-6.5-14.1-23.9-4-33.1C73.4,253.4,77.4,251.9,83.7,251.9"/>
<path d="M103.1,271.7c0-6.1,0-12.2,0-18.3c0-1.1,0.3-1.4,1.4-1.4c2.5,0.1,2.5,0,2.5,2.6c0,10.5,0,21.1,0,31.6c0,1.1,0.3,1.5,1.4,1.5
	c6.6-0.1,13.1,0,19.7-0.1c1.1,0,1.6,0.3,1.4,1.4c0,0.1,0,0.3,0,0.4c0.2,1.3-0.2,1.7-1.6,1.7c-4-0.1-8,0-11.9,0s-7.7,0-11.5,0
	c-1.1,0-1.5-0.2-1.5-1.4C103.2,283.8,103.1,277.8,103.1,271.7"/>
<path d="M290.1,325.7c0,6,0,12.1,0,18.1c0,1.2-0.3,1.5-1.5,1.4c-1.2-0.1-2.4-0.1-3.6,0c-1,0.1-1.2-0.3-1.2-1.2c0-12.2,0-24.4,0-36.6
	c0-1,0.3-1.4,1.3-1.3c1.2,0.1,2.3,0.1,3.5,0c1.1-0.1,1.5,0.2,1.5,1.4C290.1,313.6,290.1,319.7,290.1,325.7"/>
<path d="M244.6,47.8l11.1,12l-16,3.7C241.4,58.2,242.9,53.1,244.6,47.8"/>
<path d="M118.2,47.7c1.6,5.2,3.1,10.2,4.7,15.4c-2.6-0.4-5.3-0.9-7.9-1.5l-8-1.9L118.2,47.7"/>
<path d="M388.7,313c-0.4-0.5-0.4-0.8,0.2-1.3c1.3-1,1.7-2.7,1.1-4.1c-0.5-1.5-1.9-2.5-3.5-2.4c-1.2,0-2.4,0-3.6,0
	c-0.9,0-1.2,0.2-1.2,1.1c0.1,3,0,6,0,9c0,0.9,0.2,1.1,1.1,1.1s1.2-0.1,1.1-1c-0.1-0.6,0-1.2,0-1.8s0.1-0.9,0.9-1
	c1.4-0.2,1.8,0.7,2.2,1.6c0.8,1.4,1.5,2.9,3.7,2C390,315.1,389.4,314.1,388.7,313 M385.4,310.8c-1.6,0.1-1.7-0.7-1.5-1.9
	c-0.3-1.2-0.1-2,1.5-1.9c1.9,0.2,2.6,0.5,2.6,1.9S387.4,310.6,385.4,310.8"/>
<path d="M389.8,300.5c-4.1-1.7-8.7-0.8-11.8,2.3c-3.5,2.9-4.8,7.7-3.3,12c1.6,5.3,6.8,8.7,12.3,8.1c5.4-0.4,9.7-4.8,10.4-10.5
	c0-0.7,0-1.3,0-2C396.8,305.7,394.4,302.2,389.8,300.5 M385.8,321.3c-5.5,0-9.9-4.4-10-9.9c0-5.5,4.5-10,10-10.1c5.5,0,10,4.5,10,10
	S391.4,321.4,385.8,321.3"/>
</svg>
