<svg id="Group_72" data-name="Group 72" xmlns="http://www.w3.org/2000/svg" viewBox="0 0 137.566 64.834">
  <defs>
    <style>
      .cls-1 {
        fill: #ed1b26;
      }

      .cls-2 {
        fill: #204498;
      }
    </style>
  </defs>
  <g id="Group_67" data-name="Group 67" transform="translate(69.666)">
    <g id="Group_65" data-name="Group 65">
      <path id="Path_87" data-name="Path 87" class="cls-1" d="M92.684,0H101.4q9.073,0,9.064,7.856V37.491q0,7.923-9.064,7.923H93.118q-9.073,0-9.064-7.923V31.634h9.923v4.5c0,1.191.642,1.783,1.925,1.783h2.716c1.233,0,1.858-.592,1.858-1.783v-8.64h-7.79q-9.073,0-9.064-7.856V7.856Q83.62.008,92.684,0Zm2.858,20.495h4.924V9.289c0-1.191-.617-1.783-1.858-1.783H95.534c-1.283,0-1.925.6-1.925,1.783v9.423a1.839,1.839,0,0,0,.425,1.391A2.259,2.259,0,0,0,95.542,20.495Z" transform="translate(-83.62)"/>
      <path id="Path_88" data-name="Path 88" class="cls-1" d="M137.128,0V45.414H126.914V7.5H120.99V0Z" transform="translate(-89.856)"/>
      <path id="Path_89" data-name="Path 89" class="cls-1" d="M161.888,0V45.414H151.674V7.5H145.75V0Z" transform="translate(-93.988)"/>
    </g>
    <g id="Group_66" data-name="Group 66" transform="translate(1.091 49.654)">
      <path id="Path_90" data-name="Path 90" class="cls-2" d="M84.93,59.61h6.3c2.016,0,3.033.875,3.033,2.624v2.674c0,1.175-.358,1.916-1.075,2.216.716.267,1.075.958,1.075,2.049v2.958q0,2.649-3.033,2.649h-6.3ZM90.9,65.384V62.543c0-.4-.217-.6-.642-.6H88.3v4.032h1.958C90.679,65.975,90.9,65.775,90.9,65.384Zm0,6.465V68.891a.6.6,0,0,0-.142-.442.764.764,0,0,0-.5-.133H88.3V72.44h1.958C90.679,72.44,90.9,72.24,90.9,71.849Z" transform="translate(-84.93 -59.602)"/>
      <path id="Path_91" data-name="Path 91" class="cls-2" d="M111.986,72.274h4.865v2.508H108.57V59.61h8.09v2.508h-4.674v3.7h3.982v2.508h-3.982v3.949Z" transform="translate(-88.875 -59.602)"/>
      <path id="Path_92" data-name="Path 92" class="cls-2" d="M130.51,59.61h6.323c2.016,0,3.033.875,3.033,2.624v9.9q0,2.649-3.033,2.649H130.51Zm5.94,12.239V62.543c0-.4-.217-.6-.642-.6h-1.883v10.5h1.883C136.234,72.44,136.45,72.24,136.45,71.849Z" transform="translate(-92.536 -59.602)"/>
      <path id="Path_93" data-name="Path 93" class="cls-2" d="M159.437,71.68V68.931a.6.6,0,0,0-.142-.442.764.764,0,0,0-.5-.133h-2.1q-2.812,0-2.816-2.674V62.224q0-2.624,3.008-2.624H159.8q3.012,0,3.008,2.624v1.983H159.4v-1.5c0-.4-.217-.6-.642-.6h-.808c-.433,0-.642.2-.642.6v2.674a.584.584,0,0,0,.142.442.719.719,0,0,0,.5.133H160a3.023,3.023,0,0,1,2.191.658,2.624,2.624,0,0,1,.667,1.941V72.13q0,2.649-3.008,2.649h-2.883c-2.016,0-3.033-.883-3.033-2.649V70.172h3.408v1.5c0,.4.217.6.642.6h.808C159.22,72.272,159.437,72.072,159.437,71.68Z" transform="translate(-96.436 -59.6)"/>
    </g>
  </g>
  <g id="Group_71" data-name="Group 71">
    <path id="Path_94" data-name="Path 94" class="cls-2" d="M54.462,0H5.54A5.541,5.541,0,0,0,0,5.532V59.244a5.536,5.536,0,0,0,5.54,5.532H54.462a5.529,5.529,0,0,0,5.532-5.532V5.532A5.534,5.534,0,0,0,54.462,0Zm.333,28.385a10.431,10.431,0,0,1-2.2,11.922,10.487,10.487,0,0,1,2.333,3.358,10.459,10.459,0,0,1-9.6,14.588H14.663A10.441,10.441,0,0,1,7.407,40.307a10.487,10.487,0,0,1-2.333-3.358A10.451,10.451,0,0,1,7.865,24.894,10.438,10.438,0,0,1,5.207,21.4a10.333,10.333,0,0,1-.983-4.424A10.441,10.441,0,0,1,14.663,6.532H45.331a10.44,10.44,0,0,1,6.807,18.362A10.548,10.548,0,0,1,54.795,28.385Z"/>
    <g id="Group_68" data-name="Group 68" transform="translate(16.721 14.238)">
      <path id="Path_95" data-name="Path 95" class="cls-2" d="M25.46,20.248a4.391,4.391,0,0,0,.658,2.316,4.408,4.408,0,0,0-5.349-.025,4.4,4.4,0,0,0-.7-5.432.018.018,0,0,1,.017-.017,4.415,4.415,0,0,0,6.473.233A4.424,4.424,0,0,0,25.46,20.248Z" transform="translate(-20.07 -17.09)"/>
      <path id="Path_96" data-name="Path 96" class="cls-2" d="M49.54,20.248a4.391,4.391,0,0,0,.658,2.316,4.408,4.408,0,0,0-5.349-.025,4.4,4.4,0,0,0-.7-5.432.018.018,0,0,1,.017-.017,4.415,4.415,0,0,0,6.473.233A4.424,4.424,0,0,0,49.54,20.248Z" transform="translate(-24.088 -17.09)"/>
    </g>
    <g id="Group_69" data-name="Group 69" transform="translate(16.721 29.651)">
      <path id="Path_97" data-name="Path 97" class="cls-2" d="M25.46,38.748a4.391,4.391,0,0,0,.658,2.316,4.408,4.408,0,0,0-5.349-.025,4.4,4.4,0,0,0-.7-5.432.018.018,0,0,1,.017-.017,4.415,4.415,0,0,0,6.473.233A4.424,4.424,0,0,0,25.46,38.748Z" transform="translate(-20.07 -35.59)"/>
      <path id="Path_98" data-name="Path 98" class="cls-2" d="M49.54,38.748a4.391,4.391,0,0,0,.658,2.316,4.408,4.408,0,0,0-5.349-.025,4.4,4.4,0,0,0-.7-5.432.018.018,0,0,1,.017-.017,4.415,4.415,0,0,0,6.473.233A4.424,4.424,0,0,0,49.54,38.748Z" transform="translate(-24.088 -35.59)"/>
    </g>
    <g id="Group_70" data-name="Group 70" transform="translate(16.721 45.064)">
      <path id="Path_99" data-name="Path 99" class="cls-2" d="M25.46,57.248a4.391,4.391,0,0,0,.658,2.316,4.408,4.408,0,0,0-5.349-.025,4.4,4.4,0,0,0-.7-5.432.018.018,0,0,1,.017-.017,4.415,4.415,0,0,0,6.473.233A4.424,4.424,0,0,0,25.46,57.248Z" transform="translate(-20.07 -54.09)"/>
      <path id="Path_100" data-name="Path 100" class="cls-2" d="M49.54,57.248a4.391,4.391,0,0,0,.658,2.316,4.408,4.408,0,0,0-5.349-.025,4.4,4.4,0,0,0-.7-5.432.018.018,0,0,1,.017-.017,4.415,4.415,0,0,0,6.473.233A4.424,4.424,0,0,0,49.54,57.248Z" transform="translate(-24.088 -54.09)"/>
    </g>
  </g>
</svg>
