<svg version="1.1" xmlns="http://www.w3.org/2000/svg" xmlns:xlink="http://www.w3.org/1999/xlink" width="26" height="26" viewBox="0 0 26 26"><path id="Delete" d="M24.728,25.079 C16.509,25.079 8.290,25.079 0.071,25.079 C0.071,16.860 0.071,8.641 0.071,0.422 C0.202,0.167 0.417,0.096 0.693,0.096 C8.606,0.100 16.518,0.099 24.430,0.099 C24.911,0.099 25.051,0.240 25.051,0.728 C25.051,8.640 25.050,16.553 25.056,24.465 C25.056,24.745 24.973,24.946 24.728,25.079 zM24.177,0.979 C16.419,0.979 8.683,0.979 0.954,0.979 C0.954,8.733 0.954,16.469 0.954,24.204 C8.707,24.204 16.436,24.204 24.177,24.204 C24.177,16.460 24.177,8.731 24.177,0.979 zM7.718,16.831 C9.055,15.492 10.394,14.154 11.732,12.815 C11.800,12.746 11.865,12.675 11.979,12.555 C11.644,12.238 11.312,11.939 10.996,11.625 C9.877,10.512 8.761,9.395 7.649,8.275 C7.558,8.183 7.451,8.064 7.440,7.949 C7.427,7.818 7.474,7.626 7.567,7.556 C7.672,7.477 7.863,7.468 8.004,7.495 C8.112,7.516 8.207,7.634 8.295,7.722 C9.660,9.083 11.023,10.447 12.387,11.810 C12.437,11.860 12.491,11.907 12.562,11.973 C12.644,11.895 12.721,11.825 12.795,11.751 C14.153,10.394 15.509,9.036 16.870,7.682 C16.968,7.585 17.096,7.483 17.222,7.464 C17.341,7.446 17.524,7.498 17.593,7.587 C17.671,7.686 17.694,7.868 17.667,7.999 C17.641,8.117 17.526,8.224 17.433,8.317 C16.097,9.658 14.758,10.996 13.419,12.333 C13.343,12.409 13.256,12.473 13.130,12.582 C13.679,13.122 14.186,13.614 14.687,14.113 C15.628,15.049 16.567,15.987 17.500,16.933 C17.599,17.034 17.696,17.187 17.701,17.320 C17.706,17.435 17.608,17.608 17.506,17.662 C17.394,17.722 17.191,17.730 17.089,17.664 C16.881,17.532 16.709,17.341 16.532,17.164 C15.256,15.891 13.982,14.615 12.707,13.340 C12.664,13.297 12.616,13.259 12.499,13.156 C12.435,13.255 12.390,13.359 12.316,13.433 C10.981,14.775 9.642,16.112 8.303,17.451 C8.246,17.507 8.194,17.571 8.129,17.618 C7.941,17.753 7.737,17.771 7.563,17.612 C7.398,17.461 7.388,17.263 7.508,17.074 C7.565,16.984 7.642,16.906 7.718,16.831 z" fill="#757575" /></svg>